<?xml version="1.0" encoding="UTF-8"?>
<svg width="27px" height="27px" viewBox="0 0 27 27" version="1.1" xmlns="http://www.w3.org/2000/svg" xmlns:xlink="http://www.w3.org/1999/xlink">
    <!-- Generator: Sketch 63.1 (92452) - https://sketch.com -->
    <title>Path_91</title>
    <desc>Created with Sketch.</desc>
    <g id="Page-1" stroke="none" stroke-width="1" fill="none" fill-rule="evenodd">
        <g id="Confirmation-customer-feedback" transform="translate(-244.000000, -404.000000)" stroke="#4D148C">
            <path d="M269.848,414.695 C269.760673,414.425839 269.528037,414.22965 269.248,414.189 L261.379,413.045 L257.86,405.914 C257.734596,405.660237 257.476058,405.499616 257.193,405.499616 C256.909942,405.499616 256.651404,405.660237 256.526,405.914 L253.006,413.045 L245.137,414.189 C244.857251,414.230121 244.624991,414.426264 244.537614,414.695181 C244.450238,414.964097 244.522849,415.259299 244.725,415.457 L250.419,421.004 L249.075,428.845 C249.027407,429.123926 249.142155,429.405706 249.371066,429.572032 C249.599977,429.738359 249.903423,429.760438 250.154,429.629 L257.193,425.929 L264.231,429.629 C264.481577,429.760438 264.785023,429.738359 265.013934,429.572032 C265.242845,429.405706 265.357593,429.123926 265.31,428.845 L263.965,421.004 L269.66,415.453 C269.86111,415.256297 269.933883,414.962883 269.848,414.695 L269.848,414.695 Z" id="Path_91"></path>
        </g>
    </g>
</svg>