<?xml version="1.0" encoding="UTF-8"?>
<svg width="26px" height="25px" viewBox="0 0 26 25" version="1.1" xmlns="http://www.w3.org/2000/svg" xmlns:xlink="http://www.w3.org/1999/xlink">
    <!-- Generator: Sketch 63.1 (92452) - https://sketch.com -->
    <title>Path_88</title>
    <desc>Created with Sketch.</desc>
    <g id="Page-1" stroke="none" stroke-width="1" fill="none" fill-rule="evenodd">
        <g id="Confirmation-customer-feedback" transform="translate(-50.000000, -405.000000)" fill="#4D148C" fill-rule="nonzero">
            <path d="M75.348,414.695 C75.2606732,414.425839 75.0280375,414.22965 74.748,414.189 L66.879,413.045 L63.36,405.914 C63.234596,405.660237 62.9760581,405.499616 62.693,405.499616 C62.4099419,405.499616 62.151404,405.660237 62.026,405.914 L58.506,413.045 L50.637,414.189 C50.3572508,414.230121 50.1249907,414.426264 50.0376142,414.695181 C49.9502376,414.964097 50.0228491,415.259299 50.225,415.457 L55.919,421.004 L54.575,428.845 C54.5274069,429.123926 54.6421545,429.405706 54.871066,429.572032 C55.0999774,429.738359 55.4034226,429.760438 55.654,429.629 L62.693,425.929 L69.731,429.629 C69.9815774,429.760438 70.2850226,429.738359 70.513934,429.572032 C70.7428455,429.405706 70.8575931,429.123926 70.81,428.845 L69.465,421.004 L75.16,415.453 C75.3611097,415.256297 75.4338827,414.962883 75.348,414.695 L75.348,414.695 Z" id="Path_88"></path>
        </g>
    </g>
</svg>