<?xml version="1.0" encoding="UTF-8"?>
<svg width="24px" height="29px" viewBox="0 0 24 29" version="1.1" xmlns="http://www.w3.org/2000/svg" xmlns:xlink="http://www.w3.org/1999/xlink">
    <!-- Generator: Sketch 63.1 (92452) - https://sketch.com -->
    <title>phone list</title>
    <desc>Created with Sketch.</desc>
    <g id="Page-1" stroke="none" stroke-width="1" fill="none" fill-rule="evenodd" stroke-linecap="round" stroke-linejoin="round">
        <g id="8_Shipment_Details" transform="translate(-273.000000, -357.000000)" stroke="#4D148C" stroke-width="2">
            <g id="phone-list" transform="translate(274.000000, 358.000000)">
                <path d="M0,2.235 L0,24.585 C0.12210864,25.82225 1.14145243,26.7778848 2.384,26.82 L21.193,26.82 L21.193,4.47 L2.384,4.47 C1.76982245,4.49594517 1.17104008,4.27365583 0.72257509,3.8532199 C0.274110101,3.43278398 0.013691937,2.84957282 0,2.235 L0,2.235 C0.12210864,0.997749968 1.14145243,0.0421151686 2.384,0 L19.6,0" id="Path"></path>
                <path d="M11.038,8.136 C11.961432,8.12767321 12.8488483,8.4937916 13.4977762,9.1508217 C14.1467041,9.8078518 14.5017837,10.6997424 14.482,11.623 C14.5089228,12.5097124 14.1777023,13.3699217 13.563049,14.0095976 C12.9483958,14.6492734 12.1020807,15.0145374 11.215,15.023 L11.038,15.023 C10.1419912,15.0414799 9.275423,14.7028303 8.62936241,14.0817192 C7.98330182,13.4606081 7.61080405,12.6080418 7.594,11.712 L7.594,11.623 C7.6155481,9.72282969 9.13824332,8.18112288 11.038,8.136 Z" id="Path-2"></path>
                <path d="M5.475,21.724 L5.917,17.79 C6.21025161,16.6927825 7.16801719,15.9029473 8.301,15.824 L13.688,15.824 C14.822395,15.9018493 15.7817495,16.6924024 16.075,17.791 L16.517,21.725" id="Path-3"></path>
            </g>
        </g>
    </g>
</svg>