<?xml version="1.0" encoding="UTF-8"?>
<svg width="23px" height="24px" viewBox="0 0 23 24" version="1.1" xmlns="http://www.w3.org/2000/svg" xmlns:xlink="http://www.w3.org/1999/xlink">
    <!-- Generator: Sketch 63.1 (92452) - https://sketch.com -->
    <title>contact_us</title>
    <desc>Created with Sketch.</desc>
    <g id="Page-1" stroke="none" stroke-width="1" fill="none" fill-rule="evenodd" stroke-linecap="round" stroke-linejoin="round">
        <g id="Hamburger-Menu" transform="translate(-88.000000, -410.000000)" stroke="#4D148C" stroke-width="1.5">
            <g id="contact_us" transform="translate(88.000000, 410.000000)">
                <path d="M6.532,8.177 C7.78873067,11.7409194 11.1218499,14.1535274 14.9,14.234 C15.9696686,14.3620302 17.0542718,14.2663399 18.085,13.953 C18.1262443,14.5022268 18.1262443,15.0537732 18.085,15.603 C18.085,19.969 15.436,23.0300002 10.658,23.0300002 C6.532,23.031 3.232,19.145 3.232,14.777 C3.18202759,12.168708 4.41538298,9.70199725 6.532,8.177 L6.532,8.177 Z" id="Path"></path>
                <path d="M13.959,18.906 C17.0272562,17.7431801 19.0169301,14.7584683 18.91,11.479 C18.9841102,7.0003492 15.417521,3.30758026 10.939,3.226 C6.458,3.226 3.231,6.997 3.231,11.478 L3.231,14.778" id="Path-2"></path>
                <path d="M5.707,21.381 L4.057,21.381 C3.16779601,21.4288713 2.30016857,21.0964537 1.67059128,20.4666856 C1.04101399,19.8369176 0.708859293,18.9691894 0.757,18.08 L0.757,11.48 C0.757,5.825 5.006,0.75 10.657,0.75 C13.5351143,0.638652615 16.3291957,1.7330541 18.3660421,3.76952086 C20.4028886,5.80598762 21.4978109,8.59986499 21.387,11.478 L21.387,18.078 C21.434846,18.9670206 21.102561,19.8344764 20.4730187,20.4640187 C19.8434764,21.093561 18.9760206,21.425846 18.087,21.378 L16.437,21.378" id="Path-3"></path>
                <circle id="Oval" cx="12.251" cy="19.25" r="1.5"></circle>
            </g>
        </g>
    </g>
</svg>