<?xml version="1.0" encoding="UTF-8"?>
<svg width="23px" height="23px" viewBox="0 0 23 23" version="1.1" xmlns="http://www.w3.org/2000/svg" xmlns:xlink="http://www.w3.org/1999/xlink">
    <!-- Generator: Sketch 63.1 (92452) - https://sketch.com -->
    <title>Language</title>
    <desc>Created with Sketch.</desc>
    <g id="Page-1" stroke="none" stroke-width="1" fill="none" fill-rule="evenodd" stroke-linecap="round" stroke-linejoin="round">
        <g id="Hamburger-Menu" transform="translate(-87.000000, -333.000000)" stroke="#4D148C" stroke-width="1.5">
            <g id="Language" transform="translate(87.000000, 333.000000)">
                <path d="M17.665,12.3819545 C16.6557373,12.3759249 15.7424702,12.9792142 15.3520252,13.9099134 C14.9615803,14.8406125 15.1710668,15.9149171 15.8825786,16.6307376 C16.5940905,17.3465582 17.6671107,17.5625268 18.6001502,17.177708 C19.5331896,16.7928892 20.142,15.883281 20.142,14.874 C20.1071723,13.5181795 19.0205855,12.4250127 17.665,12.3819545 Z" id="Path"></path>
                <path d="M13.595,21.642 L13.946,18.792 C14.1841341,17.9972176 14.886773,17.4308938 15.714,17.367 L19.609,17.367 C20.4375662,17.431633 21.1405858,18.0002518 21.377,18.797 L21.728,21.647" id="Path-2"></path>
                <path d="M4.9,12.3819992 C5.90810152,12.3811909 6.81738878,12.987834 7.20373328,13.9189663 C7.59007777,14.8500985 7.37736678,15.92228 6.66481735,16.6354018 C5.95226792,17.3485235 4.88025754,17.5620953 3.9488154,17.1764985 C3.01737326,16.7909017 2.41,15.8821018 2.41,14.874 C2.41,13.4984871 3.52448752,12.3831039 4.9,12.3819992 L4.9,12.3819992 Z" id="Path-3"></path>
                <path d="M8.969,21.642 L8.618,18.797 C8.38158579,18.0002518 7.67856622,17.431633 6.85,17.367 L2.955,17.367 C2.12643378,17.431633 1.42341421,18.0002518 1.187,18.797 L0.836,21.642" id="Path-4"></path>
                <path d="M8.835,2.921 L8.835,0.75 L17.647,0.75 L17.647,6.861 C17.6135437,6.95211254 17.5430516,7.02478488 17.453,7.061 L15.886,7.061 L15.886,8.637 L13.73,6.973" id="Path-5"></path>
                <polygon id="Path-6" points="9.222 8.83 13.729 8.83 13.729 2.921 4.917 2.921 4.917 8.83 6.879 8.83 6.879 10.611"></polygon>
            </g>
        </g>
    </g>
</svg>