<?xml version="1.0" encoding="UTF-8"?>
<svg width="26px" height="16px" viewBox="0 0 26 16" version="1.1" xmlns="http://www.w3.org/2000/svg" xmlns:xlink="http://www.w3.org/1999/xlink">
    <!-- Generator: Sketch 63.1 (92452) - https://sketch.com -->
    <title>My_shipment</title>
    <desc>Created with Sketch.</desc>
    <g id="Page-1" stroke="none" stroke-width="1" fill="none" fill-rule="evenodd" stroke-linecap="round" stroke-linejoin="round">
        <g id="Hamburger-Menu" transform="translate(-87.000000, -260.000000)" stroke="#4D148C" stroke-width="1.5">
            <g id="My_shipment" transform="translate(87.000000, 260.000000)">
                <line x1="3.608" y1="12.149" x2="3.608" y2="0.75" id="Path"></line>
                <line x1="16.831" y1="12.149" x2="11.392" y2="12.149" id="Path-2"></line>
                <path d="M8.879,9.627 C10.2718621,9.627 11.401,10.7561379 11.401,12.149 C11.401,13.5418621 10.2718621,14.671 8.879,14.671 C7.48613786,14.671 6.357,13.5418621 6.357,12.149 C6.357,10.7561379 7.48613786,9.627 8.879,9.627 L8.879,9.627 Z" id="Path-3"></path>
                <path d="M0.75,0.75 L20.27,0.75 L22.901,6.887 L24.683,8.375 L24.683,11.275 C24.683,11.7394715 24.3064715,12.116 23.842,12.116 L21.875,12.116" id="Path-4"></path>
                <line x1="1.364" y1="12.149" x2="5.87" y2="12.149" id="Path-5"></line>
                <path d="M19.368,9.627 C20.7608621,9.627 21.89,10.7561379 21.89,12.149 C21.89,13.5418621 20.7608621,14.671 19.368,14.671 C17.9751379,14.671 16.846,13.5418621 16.846,12.149 C16.8273286,11.4745733 17.0870381,10.822187 17.5641126,10.3451126 C18.041187,9.86803815 18.6935733,9.6083286 19.368,9.627 L19.368,9.627 Z" id="Path-6"></path>
                <path d="M21.388,3.381 L15.882,3.381 C15.4175285,3.381 15.041,3.75752853 15.041,4.222 L15.041,5.97 C15.041,6.43447147 15.4175285,6.811 15.882,6.811 L22.901,6.811" id="Path-7"></path>
                <line x1="18.395" y1="3.381" x2="18.395" y2="6.886" id="Path-8"></line>
            </g>
        </g>
    </g>
</svg>